#!OML:ASF X:\für Bonn\!DataBase\2005_08_10_Bjorn_Final\c3d\bjorn.ASF
:FULLY-SPECIFIED
:DEGREES
48
root 3.1301 18.5764 3.96829 -169.597 -11.465 176.85
lowerback 4.79349 -1.74915 3.85424
upperback 10.9443 -3.66922 -0.545401
thorax 8.63397 -2.0002 -2.89893
lowerneck -4.4184 2.2905 -0.864804
upperneck -1.94885 2.83205 -7.50086
head 0.244821 1.26934 -2.15604
rclavicle -3.63776e-014 2.26615e-014
rhumerus -28.9704 -26.1219 -79.9594
rradius 23.3897
rwrist 13.1737
rhand -10.9408 15.9113
rfingers 7.12502
rthumb 15.0776 -13.5196
lclavicle -3.63776e-014 2.26615e-014
lhumerus -21.7735 -26.5811 87.9016
lradius 57.6697
lwrist -15.3518
lhand -32.2137 -9.68016
lfingers 7.12502
lthumb -5.45503 20.2296
rfemur -39.3207 -5.89658 17.2973
rtibia 47.7176
rfoot -14.9795 12.4179
rtoes -11.8756
lfemur -16.0412 6.24576 -22.2144
ltibia 38.7848
lfoot -26.3998 -9.57873
ltoes -13.4699
49
root 3.11625 18.5667 3.9199 -169.414 -11.435 176.616
lowerback 4.74826 -1.81387 4.00122
upperback 10.8202 -3.73539 -0.451669
thorax 8.51536 -2.01992 -2.87779
lowerneck -4.4564 2.31847 -0.847776
upperneck -2.06444 2.84508 -7.75499
head 0.22067 1.2693 -2.2424
rclavicle -3.8763e-014 2.68359e-014
rhumerus -28.9723 -26.0642 -79.8608
rradius 23.439
rwrist 13.0632
rhand -11.0277 15.8527
rfingers 7.12502
rthumb 14.9938 -13.5845
lclavicle -3.8763e-014 2.68359e-014
lhumerus -22.6827 -26.4601 88.4324
lradius 57.3823
lwrist -15.1233
lhand -32.6834 -9.73533
lfingers 7.12502
lthumb -5.90856 20.1623
rfemur -39.4078 -5.73906 16.9586
rtibia 47.9454
rfoot -15.1874 12.3875
rtoes -11.7187
lfemur -15.9356 6.4098 -22.4464
ltibia 38.7104
lfoot -26.6039 -9.49897
ltoes -15.2331
50
root 3.10172 18.56 3.87186 -169.239 -11.3961 176.382
lowerback 4.64158 -1.86666 4.14054
upperback 10.7055 -3.78935 -0.35183
thorax 8.44477 -2.03312 -2.8501
lowerneck -4.41683 2.34813 -0.772023
upperneck -2.19785 2.85267 -8.06943
head 0.179724 1.26791 -2.36049
rclavicle 2.72335e-014 -5.56597e-015
rhumerus -28.9332 -25.9667 -79.7754
rradius 23.4902
rwrist 12.8615
rhand -11.1242 15.7862
rfingers 7.12502
rthumb 14.9008 -13.6578
lclavicle 2.72335e-014 -5.56597e-015
lhumerus -23.5803 -26.3351 88.9746
lradius 57.0265
lwrist -14.982
lhand -33.2463 -9.91009
lfingers 7.12502
lthumb -6.45202 19.9716
rfemur -39.4664 -5.61997 16.6315
rtibia 48.126
rfoot -15.3815 12.3817
rtoes -11.7395
lfemur -15.8233 6.53253 -22.6651
ltibia 38.6896
lfoot -26.7678 -9.42187
ltoes -16.9139
51
root 3.08741 18.5587 3.82275 -169.084 -11.3552 176.149
lowerback 4.48718 -1.9142 4.28854
upperback 10.5984 -3.83763 -0.274023
thorax 8.40898 -2.0406 -2.85383
lowerneck -4.29481 2.38112 -0.642492
upperneck -2.35792 2.85866 -8.39701
head 0.117411 1.26893 -2.49431
rclavicle 1.5704e-014 -3.73715e-014
rhumerus -28.9172 -25.9138 -79.7037
rradius 23.5671
rwrist 12.6693
rhand -11.2141 15.7041
rfingers 7.12502
rthumb 14.8142 -13.7464
lclavicle 1.5704e-014 -3.73715e-014
lhumerus -24.5091 -26.2322 89.4964
lradius 56.6547
lwrist -14.844
lhand -33.8006 -10.1225
lfingers 7.12502
lthumb -6.98705 19.7421
rfemur -39.4644 -5.55395 16.3303
rtibia 48.2345
rfoot -15.5984 12.3579
rtoes -12.0504
lfemur -15.7006 6.51995 -22.8705
ltibia 38.758
lfoot -26.8137 -9.33044
ltoes -18.0954
52
root 3.0736 18.5654 3.77312 -168.952 -11.2998 175.861
lowerback 4.3279 -1.95201 4.34202
upperback 10.5008 -3.87711 -0.175281
thorax 8.39283 -2.05276 -2.78399
lowerneck -4.24258 2.41623 -0.59346
upperneck -2.44803 2.87654 -8.70488
head 0.0875035 1.27244 -2.60659
rclavicle -2.50469e-014 8.74653e-015
rhumerus -28.8838 -25.797 -79.5982
rradius 23.6711
rwrist 12.473
rhand -11.3459 15.6113
rfingers 7.12502
rthumb 14.6872 -13.8485
lclavicle -2.50469e-014 8.74653e-015
lhumerus -25.4164 -26.1119 90.0933
lradius 56.2408
lwrist -14.6412
lhand -34.2683 -10.3478
lfingers 7.12502
lthumb -7.43856 19.5014
rfemur -39.3717 -5.48392 15.9611
rtibia 48.2612
rfoot -15.7897 12.3564
rtoes -12.2616
lfemur -15.55 6.43406 -23.1267
ltibia 38.9293
lfoot -26.8044 -9.19204
ltoes -19.1286
53
root 3.05912 18.577 3.72286 -168.844 -11.2311 175.594
lowerback 4.1304 -1.97624 4.41859
upperback 10.4347 -3.90703 -0.0854565
thorax 8.43381 -2.05787 -2.74049
lowerneck -4.31292 2.44498 -0.565135
upperneck -2.49161 2.89326 -8.98435
head 0.0922511 1.27082 -2.70468
rclavicle 4.41302e-014 1.59028e-015
rhumerus -28.8077 -25.7098 -79.5296
rradius 23.7792
rwrist 12.2954
rhand -11.5191 15.5605
rfingers 7.12502
rthumb 14.5204 -13.9113
lclavicle 4.41302e-014 1.59028e-015
lhumerus -26.2224 -26.0388 90.6294
lradius 55.7831
lwrist -14.3682
lhand -34.6679 -10.6102
lfingers 7.12502
lthumb -7.82427 19.225
rfemur -39.2151 -5.44655 15.6239
rtibia 48.2134
rfoot -15.9735 12.3661
rtoes -12.5678
lfemur -15.3857 6.33547 -23.3702
ltibia 39.2045
lfoot -26.7432 -8.88137
ltoes -20.3365
54
root 3.04466 18.5896 3.67277 -168.755 -11.1445 175.311
lowerback 3.87728 -1.99896 4.44282
upperback 10.402 -3.94562 0.0140414
thorax 8.54721 -2.07145 -2.66348
lowerneck -4.55498 2.48547 -0.599099
upperneck -2.41569 2.94387 -9.23017
head 0.164075 1.27804 -2.77749
rclavicle 3.97569e-016 7.55382e-015
rhumerus -28.6624 -25.5687 -79.4779
rradius 23.8925
rwrist 12.0516
rhand -11.6653 15.5609
rfingers 7.12502
rthumb 14.3795 -13.921
lclavicle 3.97569e-016 7.55382e-015
lhumerus -26.9169 -25.9554 91.1473
lradius 55.2463
lwrist -14.0686
lhand -35.0199 -10.8506
lfingers 7.12502
lthumb -8.16399 18.9717
rfemur -39.0148 -5.38921 15.2648
rtibia 48.1174
rfoot -16.1414 12.3681
rtoes -12.9016
lfemur -15.1967 6.25942 -23.6416
ltibia 39.5652
lfoot -26.6146 -8.53898
ltoes -21.2293
